<svg width="315.7" height="73.5" viewBox="0 0 315.7 73.5" xmlns="http://www.w3.org/2000/svg"><g id="svgGroup" stroke-linecap="round" fill-rule="evenodd" font-size="9pt" stroke="#000" stroke-width="0.25mm" fill="none" style="stroke:#000;stroke-width:0.25mm;fill:none"><path d="M 33.9 41.5 L 10 41.5 L 10 64 L 39.9 64 L 39.9 73 L 0 73 L 0 3 L 39.9 3 L 39.9 12 L 10 12 L 10 32.5 L 33.9 32.5 L 33.9 41.5 Z M 132.4 43.3 L 144 50 L 144 66.3 L 132.4 73 L 106.4 73 L 106.4 64.3 L 134.3 64.3 L 134.3 52 L 118 52 L 106.4 45.3 L 106.4 29.7 L 118 23 L 143 23 L 143 31.7 L 116.1 31.7 L 116.1 43.3 L 132.4 43.3 Z M 196.9 73 L 196.9 66.4 L 222.1 31.9 L 222.1 31.7 L 197.9 31.7 L 197.9 23 L 234.5 23 L 234.5 29.6 L 209.3 64.1 L 209.3 64.3 L 234.5 64.3 L 234.5 73 L 196.9 73 Z M 73.6 73.5 L 62.5 73.5 L 50.9 66.8 L 50.9 50.5 L 62.5 43.8 L 80.7 43.8 L 80.7 31.7 L 55.9 31.7 L 55.9 23 L 78.8 23 L 90.4 29.7 L 90.4 73.5 L 87.8 73.5 L 80.7 69.4 L 73.6 73.5 Z M 165.2 31.7 L 156 31.7 L 156 23 L 165.2 23 L 165.2 14.6 L 174.9 9 L 174.9 23 L 186.9 23 L 186.9 31.7 L 174.9 31.7 L 174.9 64.3 L 186.9 64.3 L 186.9 73 L 176.8 73 L 165.2 66.3 L 165.2 31.7 Z M 315.7 29.2 L 315.7 66.8 L 304.1 73.5 L 284.8 73.5 L 273.2 66.8 L 273.2 29.2 L 284.8 22.5 L 304.1 22.5 L 315.7 29.2 Z M 247.5 23 L 257.2 23 L 257.2 73 L 247.5 73 L 247.5 23 Z M 306 31.2 L 282.9 31.2 L 282.9 64.8 L 306 64.8 L 306 31.2 Z M 80.7 52.5 L 60.6 52.5 L 60.6 64.8 L 80.7 64.8 L 80.7 52.5 Z M 257.7 10.7 L 247 10.7 L 247 0 L 257.7 0 L 257.7 10.7 Z" vector-effect="non-scaling-stroke"/></g></svg>